<?xml version="1.0" standalone="no"?>
<!DOCTYPE svg PUBLIC "-//W3C//DTD SVG 20010904//EN"
 "http://www.w3.org/TR/2001/REC-SVG-20010904/DTD/svg10.dtd">
<svg version="1.0" xmlns="http://www.w3.org/2000/svg"
 width="600.000000pt" height="600.000000pt" viewBox="0 0 600.000000 600.000000"
 preserveAspectRatio="xMidYMid meet">
<metadata>
Created by potrace 1.14, written by Peter Selinger 2001-2017
</metadata>
<g transform="translate(0.000000,600.000000) scale(0.100000,-0.100000)"
fill="#000000" stroke="none">
<path d="M2798 5995 c-1 -1 -41 -6 -87 -9 -47 -4 -87 -9 -90 -11 -3 -1 -37 -6
-76 -10 -38 -3 -72 -8 -75 -10 -4 -2 -22 -7 -41 -10 -19 -3 -54 -11 -79 -16
-25 -6 -52 -12 -60 -14 -138 -28 -383 -115 -555 -195 -105 -49 -305 -157 -315
-170 -3 -4 -12 -9 -20 -12 -27 -10 -243 -168 -329 -242 -136 -114 -314 -296
-402 -407 -18 -24 -38 -49 -44 -55 -5 -6 -17 -22 -25 -34 -8 -12 -34 -48 -56
-79 -226 -314 -409 -739 -484 -1126 -6 -27 -12 -61 -15 -75 -3 -14 -7 -43 -10
-65 -3 -22 -8 -56 -10 -75 -16 -115 -20 -187 -19 -380 0 -290 16 -439 75 -690
27 -115 78 -287 98 -335 5 -11 19 -47 32 -80 155 -411 475 -862 826 -1165 226
-194 519 -376 793 -493 272 -115 564 -189 885 -224 143 -15 573 -8 675 12 13
2 46 7 73 10 28 3 53 8 56 9 3 2 28 7 55 10 27 4 52 9 56 11 4 2 17 6 31 9
321 66 703 230 1004 431 240 161 493 390 660 600 22 28 43 52 46 55 3 3 37 50
76 105 122 174 231 366 302 535 18 41 36 84 41 95 25 53 108 316 125 391 27
125 45 218 50 259 30 228 33 276 30 490 -2 127 -6 244 -8 260 -3 17 -8 57 -12
90 -4 32 -8 66 -10 75 -1 8 -6 35 -10 60 -12 81 -65 293 -90 368 -14 40 -25
77 -25 83 0 6 -6 25 -14 42 -7 18 -24 59 -36 92 -78 206 -245 504 -394 700
-113 149 -310 360 -435 465 -29 25 -59 50 -65 55 -61 54 -285 210 -386 269
-53 30 -284 145 -352 175 -201 88 -551 181 -778 206 -36 4 -74 9 -85 12 -23 5
-491 13 -497 8z"/>
</g>
</svg>
