<?xml version="1.0" standalone="no"?>
<!DOCTYPE svg PUBLIC "-//W3C//DTD SVG 20010904//EN"
 "http://www.w3.org/TR/2001/REC-SVG-20010904/DTD/svg10.dtd">
<svg version="1.0" xmlns="http://www.w3.org/2000/svg"
 width="632.000000pt" height="632.000000pt" viewBox="0 0 632.000000 632.000000"
 preserveAspectRatio="xMidYMid meet">
<metadata>
Created by potrace 1.11, written by Peter Selinger 2001-2013
</metadata>
<g transform="translate(0.000000,632.000000) scale(0.100000,-0.100000)"
fill="#000000" stroke="none">
<path d="M2960 6289 c-658 -39 -1267 -276 -1785 -692 -101 -82 -325 -299 -404
-392 -410 -485 -653 -1046 -732 -1690 -20 -162 -17 -566 5 -730 89 -655 336
-1201 762 -1685 521 -593 1256 -966 2049 -1040 143 -13 439 -13 585 1 422 39
848 170 1216 375 680 378 1192 988 1443 1718 334 969 167 2053 -443 2876 -107
145 -166 212 -325 370 -538 534 -1250 847 -2026 890 -176 10 -168 10 -345 -1z
m545 -219 c658 -87 1238 -372 1701 -834 487 -487 781 -1109 845 -1789 15 -165
7 -555 -16 -697 -56 -361 -171 -700 -339 -999 -420 -748 -1143 -1276 -1971
-1440 -232 -46 -330 -55 -585 -55 -289 0 -465 22 -730 89 -232 59 -548 188
-710 290 -22 14 -42 25 -45 25 -12 0 -162 101 -283 192 -142 107 -375 330
-478 458 -350 435 -560 909 -640 1444 -22 153 -30 327 -23 536 18 519 165 993
449 1444 87 139 103 160 241 326 475 570 1188 943 1949 1019 115 12 524 6 635
-9z"/>
<path d="M2905 5969 c-263 -22 -638 -112 -828 -199 -23 -10 -76 -34 -119 -53
-296 -135 -595 -349 -843 -607 -755 -783 -983 -1960 -578 -2980 139 -350 344
-661 613 -931 239 -240 457 -399 737 -538 697 -347 1478 -392 2223 -128 147
52 415 186 551 275 692 453 1134 1136 1261 1947 30 189 32 616 5 800 -92 619
-351 1143 -781 1583 -581 595 -1408 901 -2241 831z m785 -844 c257 -58 453
-169 572 -325 41 -53 94 -167 112 -241 24 -97 22 -293 -4 -388 -77 -277 -289
-460 -695 -601 -44 -15 -73 -30 -65 -33 8 -3 71 -23 140 -45 485 -156 756
-416 800 -768 33 -268 -84 -550 -316 -763 -197 -181 -467 -272 -809 -273 -77
0 -492 2 -922 5 -806 5 -813 5 -813 43 0 24 43 42 159 64 129 24 198 54 235
103 51 66 86 211 106 432 13 136 36 1313 33 1680 -4 541 -49 844 -139 932 -33
32 -116 64 -200 78 -89 15 -125 49 -90 84 15 14 69 16 519 18 276 1 556 6 622
11 197 16 666 8 755 -13z"/>
<path d="M2975 5040 c-33 -6 -108 -22 -166 -36 l-107 -27 -6 -61 c-3 -33 -9
-342 -12 -686 -5 -465 -4 -632 5 -648 22 -42 128 -52 332 -32 426 42 705 183
819 415 54 109 72 203 73 365 0 155 -16 242 -64 346 -74 161 -241 288 -454
344 -92 25 -319 35 -420 20z"/>
<path d="M2805 3434 c-109 -9 -112 -10 -125 -61 -14 -60 -18 -147 -30 -673
-10 -487 -2 -755 25 -796 19 -30 96 -66 174 -83 104 -22 357 -34 485 -22 200
18 312 57 419 147 206 173 315 468 287 779 -36 393 -225 596 -640 686 -77 17
-138 21 -320 24 -124 1 -247 1 -275 -1z"/>
</g>
</svg>
