<?xml version="1.0" standalone="no"?>
<!DOCTYPE svg PUBLIC "-//W3C//DTD SVG 20010904//EN"
 "http://www.w3.org/TR/2001/REC-SVG-20010904/DTD/svg10.dtd">
<svg version="1.0" xmlns="http://www.w3.org/2000/svg"
 width="632.000000pt" height="632.000000pt" viewBox="0 0 632.000000 632.000000"
 preserveAspectRatio="xMidYMid meet">
<metadata>
Created by potrace 1.11, written by Peter Selinger 2001-2013
</metadata>
<g transform="translate(0.000000,632.000000) scale(0.100000,-0.100000)"
fill="#000000" stroke="none">
<path d="M2850 6279 c-708 -66 -1387 -383 -1895 -885 -641 -634 -974 -1493
-925 -2387 53 -969 529 -1828 1325 -2393 250 -178 579 -338 880 -429 266 -81
526 -122 820 -132 643 -20 1275 160 1810 516 211 140 296 210 490 405 239 239
406 465 556 751 366 698 453 1528 238 2292 -110 393 -305 773 -558 1090 -531
666 -1283 1079 -2124 1168 -158 16 -459 18 -617 4z m708 -213 c623 -95 1180
-369 1616 -795 212 -208 351 -384 494 -626 322 -542 454 -1189 376 -1835 -102
-846 -578 -1611 -1297 -2084 -735 -483 -1665 -608 -2503 -335 -725 236 -1322
738 -1687 1419 -139 259 -247 582 -296 890 -59 362 -48 747 30 1105 125 575
447 1130 885 1526 468 422 998 664 1634 745 142 18 605 12 748 -10z"/>
<path d="M2955 5968 c-532 -32 -1068 -232 -1501 -560 -730 -553 -1142 -1417
-1111 -2329 25 -721 314 -1387 822 -1893 466 -464 1066 -745 1718 -807 163
-15 525 -7 667 16 480 75 899 250 1275 532 1063 798 1421 2225 861 3428 -200
430 -493 788 -883 1077 -431 320 -982 517 -1493 534 -80 2 -165 6 -190 7 -25
1 -99 -1 -165 -5z m690 -833 c365 -64 614 -241 709 -503 57 -158 57 -354 2
-514 -83 -239 -292 -413 -646 -539 -58 -20 -98 -39 -90 -42 8 -3 65 -21 127
-41 438 -141 688 -350 785 -656 19 -64 23 -96 22 -210 0 -159 -14 -221 -79
-355 -122 -253 -342 -443 -611 -528 -176 -56 -242 -62 -569 -58 -399 6 -1122
7 -1366 2 -213 -3 -239 1 -239 44 0 33 14 39 164 69 70 14 143 35 161 46 107
66 152 206 174 535 12 191 25 990 25 1590 0 460 -11 624 -55 801 -39 154 -85
201 -234 235 -49 11 -101 26 -115 33 -31 15 -39 60 -13 74 10 6 260 13 588 17
314 3 635 10 715 14 196 11 436 5 545 -14z"/>
<path d="M3030 5044 c-66 -8 -195 -35 -261 -55 l-66 -19 -7 -138 c-3 -75 -9
-376 -12 -667 -8 -577 -6 -597 43 -610 40 -10 265 -7 361 5 286 36 505 123
637 255 78 77 121 151 157 265 20 67 23 95 23 250 0 155 -3 184 -23 250 -70
226 -261 390 -520 446 -69 15 -269 26 -332 18z"/>
<path d="M2929 3436 c-2 -3 -40 -6 -85 -7 -146 -4 -146 -4 -165 -79 -12 -49
-24 -540 -24 -1005 0 -446 -1 -442 74 -479 97 -50 184 -61 456 -61 224 1 258
3 327 22 112 32 184 70 255 137 198 184 284 415 270 720 -11 237 -67 378 -201
511 -66 66 -99 89 -176 127 -114 56 -262 93 -420 108 -116 10 -303 14 -311 6z"/>
</g>
</svg>
